<?xml version="1.0" encoding="utf-8" standalone="no"?>
<!DOCTYPE svg PUBLIC "-//W3C//DTD SVG 1.1//EN"
  "http://www.w3.org/Graphics/SVG/1.1/DTD/svg11.dtd">
<svg xmlns:xlink="http://www.w3.org/1999/xlink" width="576pt" height="432pt" viewBox="0 0 576 432" xmlns="http://www.w3.org/2000/svg" version="1.1">
 <metadata>
  <rdf:RDF xmlns:dc="http://purl.org/dc/elements/1.1/" xmlns:cc="http://creativecommons.org/ns#" xmlns:rdf="http://www.w3.org/1999/02/22-rdf-syntax-ns#">
   <cc:Work>
    <dc:type rdf:resource="http://purl.org/dc/dcmitype/StillImage"/>
    <dc:date>2026-06-23T18:18:33.254165</dc:date>
    <dc:format>image/svg+xml</dc:format>
    <dc:creator>
     <cc:Agent>
      <dc:title>Matplotlib v3.10.8, https://matplotlib.org/</dc:title>
     </cc:Agent>
    </dc:creator>
   </cc:Work>
  </rdf:RDF>
 </metadata>
 <defs>
  <style type="text/css">*{stroke-linejoin: round; stroke-linecap: butt}</style>
 </defs>
 <g id="figure_1">
  <g id="patch_1">
   <path d="M 0 432 
L 576 432 
L 576 0 
L 0 0 
z
" style="fill: #ffffff"/>
  </g>
  <g id="axes_1">
   <g id="patch_2">
    <path d="M 72 384.48 
L 518.4 384.48 
L 518.4 51.84 
L 72 51.84 
z
" style="fill: #ffffff"/>
   </g>
   <g id="QuadMesh_1">
    <path d="M 72 51.84 
L 127.8 51.84 
L 127.8 107.28 
L 72 107.28 
L 72 51.84 
" clip-path="url(#p232a536c62)" style="fill: #b7e3b6; stroke: #ffffff; stroke-width: 0.5"/>
    <path d="M 127.8 51.84 
L 183.6 51.84 
L 183.6 107.28 
L 127.8 107.28 
L 127.8 51.84 
" clip-path="url(#p232a536c62)" style="fill: #e3f4b2; stroke: #ffffff; stroke-width: 0.5"/>
    <path d="M 183.6 51.84 
L 239.4 51.84 
L 239.4 107.28 
L 183.6 107.28 
L 183.6 51.84 
" clip-path="url(#p232a536c62)" style="fill: #f1faba; stroke: #ffffff; stroke-width: 0.5"/>
    <path d="M 239.4 51.84 
L 295.2 51.84 
L 295.2 107.28 
L 239.4 107.28 
L 239.4 51.84 
" clip-path="url(#p232a536c62)" style="fill: #eef8b3; stroke: #ffffff; stroke-width: 0.5"/>
    <path d="M 295.2 51.84 
L 351 51.84 
L 351 107.28 
L 295.2 107.28 
L 295.2 51.84 
" clip-path="url(#p232a536c62)" style="fill: #f6fbc5; stroke: #ffffff; stroke-width: 0.5"/>
    <path d="M 351 51.84 
L 406.8 51.84 
L 406.8 107.28 
L 351 107.28 
L 351 51.84 
" clip-path="url(#p232a536c62)" style="fill: #fbfdd0; stroke: #ffffff; stroke-width: 0.5"/>
    <path d="M 406.8 51.84 
L 462.6 51.84 
L 462.6 107.28 
L 406.8 107.28 
L 406.8 51.84 
" clip-path="url(#p232a536c62)" style="fill: #ffffd9; stroke: #ffffff; stroke-width: 0.5"/>
    <path d="M 462.6 51.84 
L 518.4 51.84 
L 518.4 107.28 
L 462.6 107.28 
L 462.6 51.84 
" clip-path="url(#p232a536c62)" style="fill: #f8fcc9; stroke: #ffffff; stroke-width: 0.5"/>
    <path d="M 72 107.28 
L 127.8 107.28 
L 127.8 162.72 
L 72 162.72 
L 72 107.28 
" clip-path="url(#p232a536c62)" style="fill: #f9fdcc; stroke: #ffffff; stroke-width: 0.5"/>
    <path d="M 127.8 107.28 
L 183.6 107.28 
L 183.6 162.72 
L 127.8 162.72 
L 127.8 107.28 
" clip-path="url(#p232a536c62)" style="fill: #b7e3b6; stroke: #ffffff; stroke-width: 0.5"/>
    <path d="M 183.6 107.28 
L 239.4 107.28 
L 239.4 162.72 
L 183.6 162.72 
L 183.6 107.28 
" clip-path="url(#p232a536c62)" style="fill: #e3f4b2; stroke: #ffffff; stroke-width: 0.5"/>
    <path d="M 239.4 107.28 
L 295.2 107.28 
L 295.2 162.72 
L 239.4 162.72 
L 239.4 107.28 
" clip-path="url(#p232a536c62)" style="fill: #f9fdcc; stroke: #ffffff; stroke-width: 0.5"/>
    <path d="M 295.2 107.28 
L 351 107.28 
L 351 162.72 
L 295.2 162.72 
L 295.2 107.28 
" clip-path="url(#p232a536c62)" style="fill: #f3fabd; stroke: #ffffff; stroke-width: 0.5"/>
    <path d="M 351 107.28 
L 406.8 107.28 
L 406.8 162.72 
L 351 162.72 
L 351 107.28 
" clip-path="url(#p232a536c62)" style="fill: #f6fbc5; stroke: #ffffff; stroke-width: 0.5"/>
    <path d="M 406.8 107.28 
L 462.6 107.28 
L 462.6 162.72 
L 406.8 162.72 
L 406.8 107.28 
" clip-path="url(#p232a536c62)" style="fill: #f8fcc9; stroke: #ffffff; stroke-width: 0.5"/>
    <path d="M 462.6 107.28 
L 518.4 107.28 
L 518.4 162.72 
L 462.6 162.72 
L 462.6 107.28 
" clip-path="url(#p232a536c62)" style="fill: #dbf1b2; stroke: #ffffff; stroke-width: 0.5"/>
    <path d="M 72 162.72 
L 127.8 162.72 
L 127.8 218.16 
L 72 218.16 
L 72 162.72 
" clip-path="url(#p232a536c62)" style="fill: #b7e3b6; stroke: #ffffff; stroke-width: 0.5"/>
    <path d="M 127.8 162.72 
L 183.6 162.72 
L 183.6 218.16 
L 127.8 218.16 
L 127.8 162.72 
" clip-path="url(#p232a536c62)" style="fill: #b7e3b6; stroke: #ffffff; stroke-width: 0.5"/>
    <path d="M 183.6 162.72 
L 239.4 162.72 
L 239.4 218.16 
L 183.6 218.16 
L 183.6 162.72 
" clip-path="url(#p232a536c62)" style="fill: #b7e3b6; stroke: #ffffff; stroke-width: 0.5"/>
    <path d="M 239.4 162.72 
L 295.2 162.72 
L 295.2 218.16 
L 239.4 218.16 
L 239.4 162.72 
" clip-path="url(#p232a536c62)" style="fill: #b7e3b6; stroke: #ffffff; stroke-width: 0.5"/>
    <path d="M 295.2 162.72 
L 351 162.72 
L 351 218.16 
L 295.2 218.16 
L 295.2 162.72 
" clip-path="url(#p232a536c62)" style="fill: #e3f4b2; stroke: #ffffff; stroke-width: 0.5"/>
    <path d="M 351 162.72 
L 406.8 162.72 
L 406.8 218.16 
L 351 218.16 
L 351 162.72 
" clip-path="url(#p232a536c62)" style="fill: #cfecb3; stroke: #ffffff; stroke-width: 0.5"/>
    <path d="M 406.8 162.72 
L 462.6 162.72 
L 462.6 218.16 
L 406.8 218.16 
L 406.8 162.72 
" clip-path="url(#p232a536c62)" style="fill: #b7e3b6; stroke: #ffffff; stroke-width: 0.5"/>
    <path d="M 462.6 162.72 
L 518.4 162.72 
L 518.4 218.16 
L 462.6 218.16 
L 462.6 162.72 
" clip-path="url(#p232a536c62)" style="fill: #83cebb; stroke: #ffffff; stroke-width: 0.5"/>
    <path d="M 72 218.16 
L 127.8 218.16 
L 127.8 273.6 
L 72 273.6 
L 72 218.16 
" clip-path="url(#p232a536c62)" style="fill: #081d58; stroke: #ffffff; stroke-width: 0.5"/>
    <path d="M 127.8 218.16 
L 183.6 218.16 
L 183.6 273.6 
L 127.8 273.6 
L 127.8 218.16 
" clip-path="url(#p232a536c62)" style="fill: #225aa6; stroke: #ffffff; stroke-width: 0.5"/>
    <path d="M 183.6 218.16 
L 239.4 218.16 
L 239.4 273.6 
L 183.6 273.6 
L 183.6 218.16 
" clip-path="url(#p232a536c62)" style="fill: #225aa6; stroke: #ffffff; stroke-width: 0.5"/>
    <path d="M 239.4 218.16 
L 295.2 218.16 
L 295.2 273.6 
L 239.4 273.6 
L 239.4 218.16 
" clip-path="url(#p232a536c62)" style="fill: #1f7ab5; stroke: #ffffff; stroke-width: 0.5"/>
    <path d="M 295.2 218.16 
L 351 218.16 
L 351 273.6 
L 295.2 273.6 
L 295.2 218.16 
" clip-path="url(#p232a536c62)" style="fill: #3bb0c3; stroke: #ffffff; stroke-width: 0.5"/>
    <path d="M 351 218.16 
L 406.8 218.16 
L 406.8 273.6 
L 351 273.6 
L 351 218.16 
" clip-path="url(#p232a536c62)" style="fill: #50bbc2; stroke: #ffffff; stroke-width: 0.5"/>
    <path d="M 406.8 218.16 
L 462.6 218.16 
L 462.6 273.6 
L 406.8 273.6 
L 406.8 218.16 
" clip-path="url(#p232a536c62)" style="fill: #4cbac2; stroke: #ffffff; stroke-width: 0.5"/>
    <path d="M 462.6 218.16 
L 518.4 218.16 
L 518.4 273.6 
L 462.6 273.6 
L 462.6 218.16 
" clip-path="url(#p232a536c62)" style="fill: #34a9c3; stroke: #ffffff; stroke-width: 0.5"/>
    <path d="M 72 273.6 
L 127.8 273.6 
L 127.8 329.04 
L 72 329.04 
L 72 273.6 
" clip-path="url(#p232a536c62)" style="fill: #081d58; stroke: #ffffff; stroke-width: 0.5"/>
    <path d="M 127.8 273.6 
L 183.6 273.6 
L 183.6 329.04 
L 127.8 329.04 
L 127.8 273.6 
" clip-path="url(#p232a536c62)" style="fill: #081d58; stroke: #ffffff; stroke-width: 0.5"/>
    <path d="M 183.6 273.6 
L 239.4 273.6 
L 239.4 329.04 
L 183.6 329.04 
L 183.6 273.6 
" clip-path="url(#p232a536c62)" style="fill: #162874; stroke: #ffffff; stroke-width: 0.5"/>
    <path d="M 239.4 273.6 
L 295.2 273.6 
L 295.2 329.04 
L 239.4 329.04 
L 239.4 273.6 
" clip-path="url(#p232a536c62)" style="fill: #233390; stroke: #ffffff; stroke-width: 0.5"/>
    <path d="M 295.2 273.6 
L 351 273.6 
L 351 329.04 
L 295.2 329.04 
L 295.2 273.6 
" clip-path="url(#p232a536c62)" style="fill: #234b9f; stroke: #ffffff; stroke-width: 0.5"/>
    <path d="M 351 273.6 
L 406.8 273.6 
L 406.8 329.04 
L 351 329.04 
L 351 273.6 
" clip-path="url(#p232a536c62)" style="fill: #2163aa; stroke: #ffffff; stroke-width: 0.5"/>
    <path d="M 406.8 273.6 
L 462.6 273.6 
L 462.6 329.04 
L 406.8 329.04 
L 406.8 273.6 
" clip-path="url(#p232a536c62)" style="fill: #1f80b8; stroke: #ffffff; stroke-width: 0.5"/>
    <path d="M 462.6 273.6 
L 518.4 273.6 
L 518.4 329.04 
L 462.6 329.04 
L 462.6 273.6 
" clip-path="url(#p232a536c62)" style="fill: #1e86bb; stroke: #ffffff; stroke-width: 0.5"/>
    <path d="M 72 329.04 
L 127.8 329.04 
L 127.8 384.48 
L 72 384.48 
L 72 329.04 
" clip-path="url(#p232a536c62)" style="fill: #081d58; stroke: #ffffff; stroke-width: 0.5"/>
    <path d="M 127.8 329.04 
L 183.6 329.04 
L 183.6 384.48 
L 127.8 384.48 
L 127.8 329.04 
" clip-path="url(#p232a536c62)" style="fill: #081d58; stroke: #ffffff; stroke-width: 0.5"/>
    <path d="M 183.6 329.04 
L 239.4 329.04 
L 239.4 384.48 
L 183.6 384.48 
L 183.6 329.04 
" clip-path="url(#p232a536c62)" style="fill: #081d58; stroke: #ffffff; stroke-width: 0.5"/>
    <path d="M 239.4 329.04 
L 295.2 329.04 
L 295.2 384.48 
L 239.4 384.48 
L 239.4 329.04 
" clip-path="url(#p232a536c62)" style="fill: #081d58; stroke: #ffffff; stroke-width: 0.5"/>
    <path d="M 295.2 329.04 
L 351 329.04 
L 351 384.48 
L 295.2 384.48 
L 295.2 329.04 
" clip-path="url(#p232a536c62)" style="fill: #081d58; stroke: #ffffff; stroke-width: 0.5"/>
    <path d="M 351 329.04 
L 406.8 329.04 
L 406.8 384.48 
L 351 384.48 
L 351 329.04 
" clip-path="url(#p232a536c62)" style="fill: #081d58; stroke: #ffffff; stroke-width: 0.5"/>
    <path d="M 406.8 329.04 
L 462.6 329.04 
L 462.6 384.48 
L 406.8 384.48 
L 406.8 329.04 
" clip-path="url(#p232a536c62)" style="fill: #081d58; stroke: #ffffff; stroke-width: 0.5"/>
    <path d="M 462.6 329.04 
L 518.4 329.04 
L 518.4 384.48 
L 462.6 384.48 
L 462.6 329.04 
" clip-path="url(#p232a536c62)" style="fill: #081d58; stroke: #ffffff; stroke-width: 0.5"/>
   </g>
   <g id="matplotlib.axis_1">
    <g id="xtick_1">
     <g id="line2d_1">
      <defs>
       <path id="mcc20fade79" d="M 0 0 
L 0 3.5 
" style="stroke: #000000; stroke-width: 0.8"/>
      </defs>
      <g>
       <use xlink:href="#mcc20fade79" x="99.9" y="384.48" style="stroke: #000000; stroke-width: 0.8"/>
      </g>
     </g>
     <g id="text_1">
      <!-- 5 -->
      <g transform="translate(96.71875 399.078438) scale(0.1 -0.1)">
       <defs>
        <path id="DejaVuSans-35" d="M 691 4666 
L 3169 4666 
L 3169 4134 
L 1269 4134 
L 1269 2991 
Q 1406 3038 1543 3061 
Q 1681 3084 1819 3084 
Q 2600 3084 3056 2656 
Q 3513 2228 3513 1497 
Q 3513 744 3044 326 
Q 2575 -91 1722 -91 
Q 1428 -91 1123 -41 
Q 819 9 494 109 
L 494 744 
Q 775 591 1075 516 
Q 1375 441 1709 441 
Q 2250 441 2565 725 
Q 2881 1009 2881 1497 
Q 2881 1984 2565 2268 
Q 2250 2553 1709 2553 
Q 1456 2553 1204 2497 
Q 953 2441 691 2322 
L 691 4666 
z
" transform="scale(0.015625)"/>
       </defs>
       <use xlink:href="#DejaVuSans-35"/>
      </g>
     </g>
    </g>
    <g id="xtick_2">
     <g id="line2d_2">
      <g>
       <use xlink:href="#mcc20fade79" x="155.7" y="384.48" style="stroke: #000000; stroke-width: 0.8"/>
      </g>
     </g>
     <g id="text_2">
      <!-- 10 -->
      <g transform="translate(149.3375 399.078438) scale(0.1 -0.1)">
       <defs>
        <path id="DejaVuSans-31" d="M 794 531 
L 1825 531 
L 1825 4091 
L 703 3866 
L 703 4441 
L 1819 4666 
L 2450 4666 
L 2450 531 
L 3481 531 
L 3481 0 
L 794 0 
L 794 531 
z
" transform="scale(0.015625)"/>
        <path id="DejaVuSans-30" d="M 2034 4250 
Q 1547 4250 1301 3770 
Q 1056 3291 1056 2328 
Q 1056 1369 1301 889 
Q 1547 409 2034 409 
Q 2525 409 2770 889 
Q 3016 1369 3016 2328 
Q 3016 3291 2770 3770 
Q 2525 4250 2034 4250 
z
M 2034 4750 
Q 2819 4750 3233 4129 
Q 3647 3509 3647 2328 
Q 3647 1150 3233 529 
Q 2819 -91 2034 -91 
Q 1250 -91 836 529 
Q 422 1150 422 2328 
Q 422 3509 836 4129 
Q 1250 4750 2034 4750 
z
" transform="scale(0.015625)"/>
       </defs>
       <use xlink:href="#DejaVuSans-31"/>
       <use xlink:href="#DejaVuSans-30" transform="translate(63.623047 0)"/>
      </g>
     </g>
    </g>
    <g id="xtick_3">
     <g id="line2d_3">
      <g>
       <use xlink:href="#mcc20fade79" x="211.5" y="384.48" style="stroke: #000000; stroke-width: 0.8"/>
      </g>
     </g>
     <g id="text_3">
      <!-- 20 -->
      <g transform="translate(205.1375 399.078438) scale(0.1 -0.1)">
       <defs>
        <path id="DejaVuSans-32" d="M 1228 531 
L 3431 531 
L 3431 0 
L 469 0 
L 469 531 
Q 828 903 1448 1529 
Q 2069 2156 2228 2338 
Q 2531 2678 2651 2914 
Q 2772 3150 2772 3378 
Q 2772 3750 2511 3984 
Q 2250 4219 1831 4219 
Q 1534 4219 1204 4116 
Q 875 4013 500 3803 
L 500 4441 
Q 881 4594 1212 4672 
Q 1544 4750 1819 4750 
Q 2544 4750 2975 4387 
Q 3406 4025 3406 3419 
Q 3406 3131 3298 2873 
Q 3191 2616 2906 2266 
Q 2828 2175 2409 1742 
Q 1991 1309 1228 531 
z
" transform="scale(0.015625)"/>
       </defs>
       <use xlink:href="#DejaVuSans-32"/>
       <use xlink:href="#DejaVuSans-30" transform="translate(63.623047 0)"/>
      </g>
     </g>
    </g>
    <g id="xtick_4">
     <g id="line2d_4">
      <g>
       <use xlink:href="#mcc20fade79" x="267.3" y="384.48" style="stroke: #000000; stroke-width: 0.8"/>
      </g>
     </g>
     <g id="text_4">
      <!-- 30 -->
      <g transform="translate(260.9375 399.078438) scale(0.1 -0.1)">
       <defs>
        <path id="DejaVuSans-33" d="M 2597 2516 
Q 3050 2419 3304 2112 
Q 3559 1806 3559 1356 
Q 3559 666 3084 287 
Q 2609 -91 1734 -91 
Q 1441 -91 1130 -33 
Q 819 25 488 141 
L 488 750 
Q 750 597 1062 519 
Q 1375 441 1716 441 
Q 2309 441 2620 675 
Q 2931 909 2931 1356 
Q 2931 1769 2642 2001 
Q 2353 2234 1838 2234 
L 1294 2234 
L 1294 2753 
L 1863 2753 
Q 2328 2753 2575 2939 
Q 2822 3125 2822 3475 
Q 2822 3834 2567 4026 
Q 2313 4219 1838 4219 
Q 1578 4219 1281 4162 
Q 984 4106 628 3988 
L 628 4550 
Q 988 4650 1302 4700 
Q 1616 4750 1894 4750 
Q 2613 4750 3031 4423 
Q 3450 4097 3450 3541 
Q 3450 3153 3228 2886 
Q 3006 2619 2597 2516 
z
" transform="scale(0.015625)"/>
       </defs>
       <use xlink:href="#DejaVuSans-33"/>
       <use xlink:href="#DejaVuSans-30" transform="translate(63.623047 0)"/>
      </g>
     </g>
    </g>
    <g id="xtick_5">
     <g id="line2d_5">
      <g>
       <use xlink:href="#mcc20fade79" x="323.1" y="384.48" style="stroke: #000000; stroke-width: 0.8"/>
      </g>
     </g>
     <g id="text_5">
      <!-- 50 -->
      <g transform="translate(316.7375 399.078438) scale(0.1 -0.1)">
       <use xlink:href="#DejaVuSans-35"/>
       <use xlink:href="#DejaVuSans-30" transform="translate(63.623047 0)"/>
      </g>
     </g>
    </g>
    <g id="xtick_6">
     <g id="line2d_6">
      <g>
       <use xlink:href="#mcc20fade79" x="378.9" y="384.48" style="stroke: #000000; stroke-width: 0.8"/>
      </g>
     </g>
     <g id="text_6">
      <!-- 70 -->
      <g transform="translate(372.5375 399.078438) scale(0.1 -0.1)">
       <defs>
        <path id="DejaVuSans-37" d="M 525 4666 
L 3525 4666 
L 3525 4397 
L 1831 0 
L 1172 0 
L 2766 4134 
L 525 4134 
L 525 4666 
z
" transform="scale(0.015625)"/>
       </defs>
       <use xlink:href="#DejaVuSans-37"/>
       <use xlink:href="#DejaVuSans-30" transform="translate(63.623047 0)"/>
      </g>
     </g>
    </g>
    <g id="xtick_7">
     <g id="line2d_7">
      <g>
       <use xlink:href="#mcc20fade79" x="434.7" y="384.48" style="stroke: #000000; stroke-width: 0.8"/>
      </g>
     </g>
     <g id="text_7">
      <!-- 100 -->
      <g transform="translate(425.15625 399.078438) scale(0.1 -0.1)">
       <use xlink:href="#DejaVuSans-31"/>
       <use xlink:href="#DejaVuSans-30" transform="translate(63.623047 0)"/>
       <use xlink:href="#DejaVuSans-30" transform="translate(127.246094 0)"/>
      </g>
     </g>
    </g>
    <g id="xtick_8">
     <g id="line2d_8">
      <g>
       <use xlink:href="#mcc20fade79" x="490.5" y="384.48" style="stroke: #000000; stroke-width: 0.8"/>
      </g>
     </g>
     <g id="text_8">
      <!-- 200 -->
      <g transform="translate(480.95625 399.078438) scale(0.1 -0.1)">
       <use xlink:href="#DejaVuSans-32"/>
       <use xlink:href="#DejaVuSans-30" transform="translate(63.623047 0)"/>
       <use xlink:href="#DejaVuSans-30" transform="translate(127.246094 0)"/>
      </g>
     </g>
    </g>
    <g id="text_9">
     <!-- Значения K -->
     <g transform="translate(253.2525 415.795938) scale(0.14 -0.14)">
      <defs>
       <path id="DejaVuSans-417" d="M 1828 4750 
Q 2597 4750 3084 4423 
Q 3572 4097 3572 3541 
Q 3572 3153 3350 2886 
Q 3128 2619 2719 2516 
Q 3172 2419 3426 2112 
Q 3681 1806 3681 1356 
Q 3681 638 3126 273 
Q 2572 -91 1828 -91 
Q 1447 -91 1003 12 
Q 559 116 422 203 
L 422 853 
Q 900 575 1164 508 
Q 1428 441 1816 441 
Q 2403 441 2728 666 
Q 3053 891 3053 1356 
Q 3053 1769 2764 2001 
Q 2475 2234 1866 2234 
L 1228 2234 
L 1228 2753 
L 1891 2753 
Q 2450 2753 2697 2939 
Q 2944 3125 2944 3475 
Q 2944 3834 2689 4026 
Q 2434 4219 1816 4219 
Q 1397 4219 1253 4181 
Q 1109 4144 469 3903 
L 469 4519 
Q 822 4644 1190 4697 
Q 1559 4750 1828 4750 
z
" transform="scale(0.015625)"/>
       <path id="DejaVuSans-43d" d="M 581 3500 
L 1159 3500 
L 1159 2072 
L 3025 2072 
L 3025 3500 
L 3603 3500 
L 3603 0 
L 3025 0 
L 3025 1613 
L 1159 1613 
L 1159 0 
L 581 0 
L 581 3500 
z
" transform="scale(0.015625)"/>
       <path id="DejaVuSans-430" d="M 2194 1759 
Q 1497 1759 1228 1600 
Q 959 1441 959 1056 
Q 959 750 1161 570 
Q 1363 391 1709 391 
Q 2188 391 2477 730 
Q 2766 1069 2766 1631 
L 2766 1759 
L 2194 1759 
z
M 3341 1997 
L 3341 0 
L 2766 0 
L 2766 531 
Q 2569 213 2275 61 
Q 1981 -91 1556 -91 
Q 1019 -91 701 211 
Q 384 513 384 1019 
Q 384 1609 779 1909 
Q 1175 2209 1959 2209 
L 2766 2209 
L 2766 2266 
Q 2766 2663 2505 2880 
Q 2244 3097 1772 3097 
Q 1472 3097 1187 3025 
Q 903 2953 641 2809 
L 641 3341 
Q 956 3463 1253 3523 
Q 1550 3584 1831 3584 
Q 2591 3584 2966 3190 
Q 3341 2797 3341 1997 
z
" transform="scale(0.015625)"/>
       <path id="DejaVuSans-447" d="M 2625 0 
L 2625 1472 
L 1553 1472 
Q 1075 1472 756 1769 
Q 469 2038 469 2613 
L 469 3500 
L 1044 3500 
L 1044 2666 
Q 1044 2300 1206 2116 
Q 1372 1931 1697 1931 
L 2625 1931 
L 2625 3500 
L 3200 3500 
L 3200 0 
L 2625 0 
z
" transform="scale(0.015625)"/>
       <path id="DejaVuSans-435" d="M 3597 1894 
L 3597 1613 
L 953 1613 
Q 991 1019 1311 708 
Q 1631 397 2203 397 
Q 2534 397 2845 478 
Q 3156 559 3463 722 
L 3463 178 
Q 3153 47 2828 -22 
Q 2503 -91 2169 -91 
Q 1331 -91 842 396 
Q 353 884 353 1716 
Q 353 2575 817 3079 
Q 1281 3584 2069 3584 
Q 2775 3584 3186 3129 
Q 3597 2675 3597 1894 
z
M 3022 2063 
Q 3016 2534 2758 2815 
Q 2500 3097 2075 3097 
Q 1594 3097 1305 2825 
Q 1016 2553 972 2059 
L 3022 2063 
z
" transform="scale(0.015625)"/>
       <path id="DejaVuSans-438" d="M 3578 3500 
L 3578 0 
L 3006 0 
L 3006 2809 
L 1319 0 
L 581 0 
L 581 3500 
L 1153 3500 
L 1153 697 
L 2838 3500 
L 3578 3500 
z
" transform="scale(0.015625)"/>
       <path id="DejaVuSans-44f" d="M 1181 2491 
Q 1181 2231 1381 2084 
Q 1581 1938 1953 1938 
L 2728 1938 
L 2728 3041 
L 1953 3041 
Q 1581 3041 1381 2897 
Q 1181 2753 1181 2491 
z
M 363 0 
L 1431 1534 
Q 1069 1616 828 1830 
Q 588 2044 588 2491 
Q 588 2997 923 3248 
Q 1259 3500 1938 3500 
L 3306 3500 
L 3306 0 
L 2728 0 
L 2728 1478 
L 2013 1478 
L 981 0 
L 363 0 
z
" transform="scale(0.015625)"/>
       <path id="DejaVuSans-20" transform="scale(0.015625)"/>
       <path id="DejaVuSans-4b" d="M 628 4666 
L 1259 4666 
L 1259 2694 
L 3353 4666 
L 4166 4666 
L 1850 2491 
L 4331 0 
L 3500 0 
L 1259 2247 
L 1259 0 
L 628 0 
L 628 4666 
z
" transform="scale(0.015625)"/>
      </defs>
      <use xlink:href="#DejaVuSans-417"/>
      <use xlink:href="#DejaVuSans-43d" transform="translate(64.111328 0)"/>
      <use xlink:href="#DejaVuSans-430" transform="translate(129.492188 0)"/>
      <use xlink:href="#DejaVuSans-447" transform="translate(190.771484 0)"/>
      <use xlink:href="#DejaVuSans-435" transform="translate(249.853516 0)"/>
      <use xlink:href="#DejaVuSans-43d" transform="translate(311.376953 0)"/>
      <use xlink:href="#DejaVuSans-438" transform="translate(376.757812 0)"/>
      <use xlink:href="#DejaVuSans-44f" transform="translate(441.748047 0)"/>
      <use xlink:href="#DejaVuSans-20" transform="translate(501.904297 0)"/>
      <use xlink:href="#DejaVuSans-4b" transform="translate(533.691406 0)"/>
     </g>
    </g>
   </g>
   <g id="matplotlib.axis_2">
    <g id="ytick_1">
     <g id="line2d_9">
      <defs>
       <path id="md66911e7d2" d="M 0 0 
L -3.5 0 
" style="stroke: #000000; stroke-width: 0.8"/>
      </defs>
      <g>
       <use xlink:href="#md66911e7d2" x="72" y="79.56" style="stroke: #000000; stroke-width: 0.8"/>
      </g>
     </g>
     <g id="text_10">
      <!-- 0.0 -->
      <g transform="translate(62.920312 87.511563) rotate(-90) scale(0.1 -0.1)">
       <defs>
        <path id="DejaVuSans-2e" d="M 684 794 
L 1344 794 
L 1344 0 
L 684 0 
L 684 794 
z
" transform="scale(0.015625)"/>
       </defs>
       <use xlink:href="#DejaVuSans-30"/>
       <use xlink:href="#DejaVuSans-2e" transform="translate(63.623047 0)"/>
       <use xlink:href="#DejaVuSans-30" transform="translate(95.410156 0)"/>
      </g>
     </g>
    </g>
    <g id="ytick_2">
     <g id="line2d_10">
      <g>
       <use xlink:href="#md66911e7d2" x="72" y="135" style="stroke: #000000; stroke-width: 0.8"/>
      </g>
     </g>
     <g id="text_11">
      <!-- 0.2 -->
      <g transform="translate(62.920312 142.951563) rotate(-90) scale(0.1 -0.1)">
       <use xlink:href="#DejaVuSans-30"/>
       <use xlink:href="#DejaVuSans-2e" transform="translate(63.623047 0)"/>
       <use xlink:href="#DejaVuSans-32" transform="translate(95.410156 0)"/>
      </g>
     </g>
    </g>
    <g id="ytick_3">
     <g id="line2d_11">
      <g>
       <use xlink:href="#md66911e7d2" x="72" y="190.44" style="stroke: #000000; stroke-width: 0.8"/>
      </g>
     </g>
     <g id="text_12">
      <!-- 0.4 -->
      <g transform="translate(62.920312 198.391562) rotate(-90) scale(0.1 -0.1)">
       <defs>
        <path id="DejaVuSans-34" d="M 2419 4116 
L 825 1625 
L 2419 1625 
L 2419 4116 
z
M 2253 4666 
L 3047 4666 
L 3047 1625 
L 3713 1625 
L 3713 1100 
L 3047 1100 
L 3047 0 
L 2419 0 
L 2419 1100 
L 313 1100 
L 313 1709 
L 2253 4666 
z
" transform="scale(0.015625)"/>
       </defs>
       <use xlink:href="#DejaVuSans-30"/>
       <use xlink:href="#DejaVuSans-2e" transform="translate(63.623047 0)"/>
       <use xlink:href="#DejaVuSans-34" transform="translate(95.410156 0)"/>
      </g>
     </g>
    </g>
    <g id="ytick_4">
     <g id="line2d_12">
      <g>
       <use xlink:href="#md66911e7d2" x="72" y="245.88" style="stroke: #000000; stroke-width: 0.8"/>
      </g>
     </g>
     <g id="text_13">
      <!-- 0.6 -->
      <g transform="translate(62.920312 253.831562) rotate(-90) scale(0.1 -0.1)">
       <defs>
        <path id="DejaVuSans-36" d="M 2113 2584 
Q 1688 2584 1439 2293 
Q 1191 2003 1191 1497 
Q 1191 994 1439 701 
Q 1688 409 2113 409 
Q 2538 409 2786 701 
Q 3034 994 3034 1497 
Q 3034 2003 2786 2293 
Q 2538 2584 2113 2584 
z
M 3366 4563 
L 3366 3988 
Q 3128 4100 2886 4159 
Q 2644 4219 2406 4219 
Q 1781 4219 1451 3797 
Q 1122 3375 1075 2522 
Q 1259 2794 1537 2939 
Q 1816 3084 2150 3084 
Q 2853 3084 3261 2657 
Q 3669 2231 3669 1497 
Q 3669 778 3244 343 
Q 2819 -91 2113 -91 
Q 1303 -91 875 529 
Q 447 1150 447 2328 
Q 447 3434 972 4092 
Q 1497 4750 2381 4750 
Q 2619 4750 2861 4703 
Q 3103 4656 3366 4563 
z
" transform="scale(0.015625)"/>
       </defs>
       <use xlink:href="#DejaVuSans-30"/>
       <use xlink:href="#DejaVuSans-2e" transform="translate(63.623047 0)"/>
       <use xlink:href="#DejaVuSans-36" transform="translate(95.410156 0)"/>
      </g>
     </g>
    </g>
    <g id="ytick_5">
     <g id="line2d_13">
      <g>
       <use xlink:href="#md66911e7d2" x="72" y="301.32" style="stroke: #000000; stroke-width: 0.8"/>
      </g>
     </g>
     <g id="text_14">
      <!-- 0.8 -->
      <g transform="translate(62.920312 309.271562) rotate(-90) scale(0.1 -0.1)">
       <defs>
        <path id="DejaVuSans-38" d="M 2034 2216 
Q 1584 2216 1326 1975 
Q 1069 1734 1069 1313 
Q 1069 891 1326 650 
Q 1584 409 2034 409 
Q 2484 409 2743 651 
Q 3003 894 3003 1313 
Q 3003 1734 2745 1975 
Q 2488 2216 2034 2216 
z
M 1403 2484 
Q 997 2584 770 2862 
Q 544 3141 544 3541 
Q 544 4100 942 4425 
Q 1341 4750 2034 4750 
Q 2731 4750 3128 4425 
Q 3525 4100 3525 3541 
Q 3525 3141 3298 2862 
Q 3072 2584 2669 2484 
Q 3125 2378 3379 2068 
Q 3634 1759 3634 1313 
Q 3634 634 3220 271 
Q 2806 -91 2034 -91 
Q 1263 -91 848 271 
Q 434 634 434 1313 
Q 434 1759 690 2068 
Q 947 2378 1403 2484 
z
M 1172 3481 
Q 1172 3119 1398 2916 
Q 1625 2713 2034 2713 
Q 2441 2713 2670 2916 
Q 2900 3119 2900 3481 
Q 2900 3844 2670 4047 
Q 2441 4250 2034 4250 
Q 1625 4250 1398 4047 
Q 1172 3844 1172 3481 
z
" transform="scale(0.015625)"/>
       </defs>
       <use xlink:href="#DejaVuSans-30"/>
       <use xlink:href="#DejaVuSans-2e" transform="translate(63.623047 0)"/>
       <use xlink:href="#DejaVuSans-38" transform="translate(95.410156 0)"/>
      </g>
     </g>
    </g>
    <g id="ytick_6">
     <g id="line2d_14">
      <g>
       <use xlink:href="#md66911e7d2" x="72" y="356.76" style="stroke: #000000; stroke-width: 0.8"/>
      </g>
     </g>
     <g id="text_15">
      <!-- 1.0 -->
      <g transform="translate(62.920312 364.711563) rotate(-90) scale(0.1 -0.1)">
       <use xlink:href="#DejaVuSans-31"/>
       <use xlink:href="#DejaVuSans-2e" transform="translate(63.623047 0)"/>
       <use xlink:href="#DejaVuSans-30" transform="translate(95.410156 0)"/>
      </g>
     </g>
    </g>
    <g id="text_16">
     <!-- Альфа (α) -->
     <g transform="translate(48.410312 254.124687) rotate(-90) scale(0.14 -0.14)">
      <defs>
       <path id="DejaVuSans-410" d="M 2188 4044 
L 1331 1722 
L 3047 1722 
L 2188 4044 
z
M 1831 4666 
L 2547 4666 
L 4325 0 
L 3669 0 
L 3244 1197 
L 1141 1197 
L 716 0 
L 50 0 
L 1831 4666 
z
" transform="scale(0.015625)"/>
       <path id="DejaVuSans-43b" d="M 238 0 
L 238 478 
Q 806 566 981 959 
Q 1194 1513 1194 2928 
L 1194 3500 
L 3559 3500 
L 3559 0 
L 2984 0 
L 2984 3041 
L 1769 3041 
L 1769 2694 
Q 1769 1344 1494 738 
Q 1200 91 238 0 
z
" transform="scale(0.015625)"/>
       <path id="DejaVuSans-44c" d="M 2781 1038 
Q 2781 1319 2576 1466 
Q 2372 1613 1978 1613 
L 1159 1613 
L 1159 459 
L 1978 459 
Q 2372 459 2576 607 
Q 2781 756 2781 1038 
z
M 581 3500 
L 1159 3500 
L 1159 2072 
L 2003 2072 
Q 2672 2072 3033 1817 
Q 3394 1563 3394 1038 
Q 3394 513 3033 256 
Q 2672 0 2003 0 
L 581 0 
L 581 3500 
z
" transform="scale(0.015625)"/>
       <path id="DejaVuSans-444" d="M 947 1747 
Q 947 1013 1173 702 
Q 1400 391 1784 391 
Q 2091 391 2447 916 
L 2447 2578 
Q 2091 3103 1784 3103 
Q 1400 3103 1173 2792 
Q 947 2481 947 1747 
z
M 2447 -1331 
L 2447 447 
Q 2269 153 2064 31 
Q 1859 -91 1600 -91 
Q 1078 -91 714 392 
Q 350 875 350 1734 
Q 350 2594 714 3089 
Q 1078 3584 1600 3584 
Q 1859 3584 2064 3465 
Q 2269 3347 2447 3053 
L 2447 4666 
L 3025 4666 
L 3025 3053 
Q 3203 3347 3408 3465 
Q 3613 3584 3872 3584 
Q 4394 3584 4758 3089 
Q 5122 2594 5122 1734 
Q 5122 875 4758 392 
Q 4394 -91 3872 -91 
Q 3613 -91 3408 31 
Q 3203 153 3025 447 
L 3025 -1331 
L 2447 -1331 
z
M 4525 1747 
Q 4525 2481 4298 2792 
Q 4072 3103 3688 3103 
Q 3381 3103 3025 2578 
L 3025 916 
Q 3381 391 3688 391 
Q 4072 391 4298 702 
Q 4525 1013 4525 1747 
z
" transform="scale(0.015625)"/>
       <path id="DejaVuSans-28" d="M 1984 4856 
Q 1566 4138 1362 3434 
Q 1159 2731 1159 2009 
Q 1159 1288 1364 580 
Q 1569 -128 1984 -844 
L 1484 -844 
Q 1016 -109 783 600 
Q 550 1309 550 2009 
Q 550 2706 781 3412 
Q 1013 4119 1484 4856 
L 1984 4856 
z
" transform="scale(0.015625)"/>
       <path id="DejaVuSans-3b1" d="M 2644 1628 
L 2506 2350 
Q 2366 3091 1809 3091 
Q 1391 3091 1200 2747 
Q 959 2316 959 1747 
Q 959 1059 1194 731 
Q 1431 397 1809 397 
Q 2228 397 2453 1063 
L 2644 1628 
z
M 2966 2584 
L 3275 3500 
L 3788 3500 
L 3147 1603 
L 3272 919 
Q 3300 766 3409 638 
Q 3538 488 3638 488 
L 3913 488 
L 3913 0 
L 3569 0 
Q 3275 0 3013 263 
Q 2884 394 2831 669 
Q 2688 322 2394 50 
Q 2256 -78 1809 -78 
Q 1075 -78 719 397 
Q 353 888 353 1747 
Q 353 2666 750 3097 
Q 1191 3578 1809 3578 
Q 2781 3578 2966 2584 
z
" transform="scale(0.015625)"/>
       <path id="DejaVuSans-29" d="M 513 4856 
L 1013 4856 
Q 1481 4119 1714 3412 
Q 1947 2706 1947 2009 
Q 1947 1309 1714 600 
Q 1481 -109 1013 -844 
L 513 -844 
Q 928 -128 1133 580 
Q 1338 1288 1338 2009 
Q 1338 2731 1133 3434 
Q 928 4138 513 4856 
z
" transform="scale(0.015625)"/>
      </defs>
      <use xlink:href="#DejaVuSans-410"/>
      <use xlink:href="#DejaVuSans-43b" transform="translate(68.408203 0)"/>
      <use xlink:href="#DejaVuSans-44c" transform="translate(132.324219 0)"/>
      <use xlink:href="#DejaVuSans-444" transform="translate(191.259766 0)"/>
      <use xlink:href="#DejaVuSans-430" transform="translate(276.757812 0)"/>
      <use xlink:href="#DejaVuSans-20" transform="translate(338.037109 0)"/>
      <use xlink:href="#DejaVuSans-28" transform="translate(369.824219 0)"/>
      <use xlink:href="#DejaVuSans-3b1" transform="translate(408.837891 0)"/>
      <use xlink:href="#DejaVuSans-29" transform="translate(474.755859 0)"/>
     </g>
    </g>
   </g>
   <g id="text_17">
    <!-- 2 -->
    <g style="fill: #262626" transform="translate(96.71875 82.319375) scale(0.1 -0.1)">
     <use xlink:href="#DejaVuSans-32"/>
    </g>
   </g>
   <g id="text_18">
    <!-- 3 -->
    <g style="fill: #262626" transform="translate(152.51875 82.319375) scale(0.1 -0.1)">
     <use xlink:href="#DejaVuSans-33"/>
    </g>
   </g>
   <g id="text_19">
    <!-- 5 -->
    <g style="fill: #262626" transform="translate(208.31875 82.319375) scale(0.1 -0.1)">
     <use xlink:href="#DejaVuSans-35"/>
    </g>
   </g>
   <g id="text_20">
    <!-- 8 -->
    <g style="fill: #262626" transform="translate(264.11875 82.319375) scale(0.1 -0.1)">
     <use xlink:href="#DejaVuSans-38"/>
    </g>
   </g>
   <g id="text_21">
    <!-- 11 -->
    <g style="fill: #262626" transform="translate(316.7375 82.319375) scale(0.1 -0.1)">
     <use xlink:href="#DejaVuSans-31"/>
     <use xlink:href="#DejaVuSans-31" transform="translate(63.623047 0)"/>
    </g>
   </g>
   <g id="text_22">
    <!-- 13 -->
    <g style="fill: #262626" transform="translate(372.5375 82.319375) scale(0.1 -0.1)">
     <use xlink:href="#DejaVuSans-31"/>
     <use xlink:href="#DejaVuSans-33" transform="translate(63.623047 0)"/>
    </g>
   </g>
   <g id="text_23">
    <!-- 15 -->
    <g style="fill: #262626" transform="translate(428.3375 82.319375) scale(0.1 -0.1)">
     <use xlink:href="#DejaVuSans-31"/>
     <use xlink:href="#DejaVuSans-35" transform="translate(63.623047 0)"/>
    </g>
   </g>
   <g id="text_24">
    <!-- 29 -->
    <g style="fill: #262626" transform="translate(484.1375 82.319375) scale(0.1 -0.1)">
     <defs>
      <path id="DejaVuSans-39" d="M 703 97 
L 703 672 
Q 941 559 1184 500 
Q 1428 441 1663 441 
Q 2288 441 2617 861 
Q 2947 1281 2994 2138 
Q 2813 1869 2534 1725 
Q 2256 1581 1919 1581 
Q 1219 1581 811 2004 
Q 403 2428 403 3163 
Q 403 3881 828 4315 
Q 1253 4750 1959 4750 
Q 2769 4750 3195 4129 
Q 3622 3509 3622 2328 
Q 3622 1225 3098 567 
Q 2575 -91 1691 -91 
Q 1453 -91 1209 -44 
Q 966 3 703 97 
z
M 1959 2075 
Q 2384 2075 2632 2365 
Q 2881 2656 2881 3163 
Q 2881 3666 2632 3958 
Q 2384 4250 1959 4250 
Q 1534 4250 1286 3958 
Q 1038 3666 1038 3163 
Q 1038 2656 1286 2365 
Q 1534 2075 1959 2075 
z
" transform="scale(0.015625)"/>
     </defs>
     <use xlink:href="#DejaVuSans-32"/>
     <use xlink:href="#DejaVuSans-39" transform="translate(63.623047 0)"/>
    </g>
   </g>
   <g id="text_25">
    <!-- 1 -->
    <g style="fill: #262626" transform="translate(96.71875 137.759375) scale(0.1 -0.1)">
     <use xlink:href="#DejaVuSans-31"/>
    </g>
   </g>
   <g id="text_26">
    <!-- 4 -->
    <g style="fill: #262626" transform="translate(152.51875 137.759375) scale(0.1 -0.1)">
     <use xlink:href="#DejaVuSans-34"/>
    </g>
   </g>
   <g id="text_27">
    <!-- 6 -->
    <g style="fill: #262626" transform="translate(208.31875 137.759375) scale(0.1 -0.1)">
     <use xlink:href="#DejaVuSans-36"/>
    </g>
   </g>
   <g id="text_28">
    <!-- 6 -->
    <g style="fill: #262626" transform="translate(264.11875 137.759375) scale(0.1 -0.1)">
     <use xlink:href="#DejaVuSans-36"/>
    </g>
   </g>
   <g id="text_29">
    <!-- 12 -->
    <g style="fill: #262626" transform="translate(316.7375 137.759375) scale(0.1 -0.1)">
     <use xlink:href="#DejaVuSans-31"/>
     <use xlink:href="#DejaVuSans-32" transform="translate(63.623047 0)"/>
    </g>
   </g>
   <g id="text_30">
    <!-- 15 -->
    <g style="fill: #262626" transform="translate(372.5375 137.759375) scale(0.1 -0.1)">
     <use xlink:href="#DejaVuSans-31"/>
     <use xlink:href="#DejaVuSans-35" transform="translate(63.623047 0)"/>
    </g>
   </g>
   <g id="text_31">
    <!-- 19 -->
    <g style="fill: #262626" transform="translate(428.3375 137.759375) scale(0.1 -0.1)">
     <use xlink:href="#DejaVuSans-31"/>
     <use xlink:href="#DejaVuSans-39" transform="translate(63.623047 0)"/>
    </g>
   </g>
   <g id="text_32">
    <!-- 44 -->
    <g style="fill: #262626" transform="translate(484.1375 137.759375) scale(0.1 -0.1)">
     <use xlink:href="#DejaVuSans-34"/>
     <use xlink:href="#DejaVuSans-34" transform="translate(63.623047 0)"/>
    </g>
   </g>
   <g id="text_33">
    <!-- 2 -->
    <g style="fill: #262626" transform="translate(96.71875 193.199375) scale(0.1 -0.1)">
     <use xlink:href="#DejaVuSans-32"/>
    </g>
   </g>
   <g id="text_34">
    <!-- 4 -->
    <g style="fill: #262626" transform="translate(152.51875 193.199375) scale(0.1 -0.1)">
     <use xlink:href="#DejaVuSans-34"/>
    </g>
   </g>
   <g id="text_35">
    <!-- 8 -->
    <g style="fill: #262626" transform="translate(208.31875 193.199375) scale(0.1 -0.1)">
     <use xlink:href="#DejaVuSans-38"/>
    </g>
   </g>
   <g id="text_36">
    <!-- 12 -->
    <g style="fill: #262626" transform="translate(260.9375 193.199375) scale(0.1 -0.1)">
     <use xlink:href="#DejaVuSans-31"/>
     <use xlink:href="#DejaVuSans-32" transform="translate(63.623047 0)"/>
    </g>
   </g>
   <g id="text_37">
    <!-- 15 -->
    <g style="fill: #262626" transform="translate(316.7375 193.199375) scale(0.1 -0.1)">
     <use xlink:href="#DejaVuSans-31"/>
     <use xlink:href="#DejaVuSans-35" transform="translate(63.623047 0)"/>
    </g>
   </g>
   <g id="text_38">
    <!-- 24 -->
    <g style="fill: #262626" transform="translate(372.5375 193.199375) scale(0.1 -0.1)">
     <use xlink:href="#DejaVuSans-32"/>
     <use xlink:href="#DejaVuSans-34" transform="translate(63.623047 0)"/>
    </g>
   </g>
   <g id="text_39">
    <!-- 36 -->
    <g style="fill: #262626" transform="translate(428.3375 193.199375) scale(0.1 -0.1)">
     <use xlink:href="#DejaVuSans-33"/>
     <use xlink:href="#DejaVuSans-36" transform="translate(63.623047 0)"/>
    </g>
   </g>
   <g id="text_40">
    <!-- 65 -->
    <g style="fill: #262626" transform="translate(484.1375 193.199375) scale(0.1 -0.1)">
     <use xlink:href="#DejaVuSans-36"/>
     <use xlink:href="#DejaVuSans-35" transform="translate(63.623047 0)"/>
    </g>
   </g>
   <g id="text_41">
    <!-- 5 -->
    <g style="fill: #ffffff" transform="translate(96.71875 248.639375) scale(0.1 -0.1)">
     <use xlink:href="#DejaVuSans-35"/>
    </g>
   </g>
   <g id="text_42">
    <!-- 8 -->
    <g style="fill: #ffffff" transform="translate(152.51875 248.639375) scale(0.1 -0.1)">
     <use xlink:href="#DejaVuSans-38"/>
    </g>
   </g>
   <g id="text_43">
    <!-- 16 -->
    <g style="fill: #ffffff" transform="translate(205.1375 248.639375) scale(0.1 -0.1)">
     <use xlink:href="#DejaVuSans-31"/>
     <use xlink:href="#DejaVuSans-36" transform="translate(63.623047 0)"/>
    </g>
   </g>
   <g id="text_44">
    <!-- 22 -->
    <g style="fill: #ffffff" transform="translate(260.9375 248.639375) scale(0.1 -0.1)">
     <use xlink:href="#DejaVuSans-32"/>
     <use xlink:href="#DejaVuSans-32" transform="translate(63.623047 0)"/>
    </g>
   </g>
   <g id="text_45">
    <!-- 30 -->
    <g style="fill: #ffffff" transform="translate(316.7375 248.639375) scale(0.1 -0.1)">
     <use xlink:href="#DejaVuSans-33"/>
     <use xlink:href="#DejaVuSans-30" transform="translate(63.623047 0)"/>
    </g>
   </g>
   <g id="text_46">
    <!-- 38 -->
    <g style="fill: #262626" transform="translate(372.5375 248.639375) scale(0.1 -0.1)">
     <use xlink:href="#DejaVuSans-33"/>
     <use xlink:href="#DejaVuSans-38" transform="translate(63.623047 0)"/>
    </g>
   </g>
   <g id="text_47">
    <!-- 51 -->
    <g style="fill: #ffffff" transform="translate(428.3375 248.639375) scale(0.1 -0.1)">
     <use xlink:href="#DejaVuSans-35"/>
     <use xlink:href="#DejaVuSans-31" transform="translate(63.623047 0)"/>
    </g>
   </g>
   <g id="text_48">
    <!-- 85 -->
    <g style="fill: #ffffff" transform="translate(484.1375 248.639375) scale(0.1 -0.1)">
     <use xlink:href="#DejaVuSans-38"/>
     <use xlink:href="#DejaVuSans-35" transform="translate(63.623047 0)"/>
    </g>
   </g>
   <g id="text_49">
    <!-- 5 -->
    <g style="fill: #ffffff" transform="translate(96.71875 304.079375) scale(0.1 -0.1)">
     <use xlink:href="#DejaVuSans-35"/>
    </g>
   </g>
   <g id="text_50">
    <!-- 10 -->
    <g style="fill: #ffffff" transform="translate(149.3375 304.079375) scale(0.1 -0.1)">
     <use xlink:href="#DejaVuSans-31"/>
     <use xlink:href="#DejaVuSans-30" transform="translate(63.623047 0)"/>
    </g>
   </g>
   <g id="text_51">
    <!-- 19 -->
    <g style="fill: #ffffff" transform="translate(205.1375 304.079375) scale(0.1 -0.1)">
     <use xlink:href="#DejaVuSans-31"/>
     <use xlink:href="#DejaVuSans-39" transform="translate(63.623047 0)"/>
    </g>
   </g>
   <g id="text_52">
    <!-- 27 -->
    <g style="fill: #ffffff" transform="translate(260.9375 304.079375) scale(0.1 -0.1)">
     <use xlink:href="#DejaVuSans-32"/>
     <use xlink:href="#DejaVuSans-37" transform="translate(63.623047 0)"/>
    </g>
   </g>
   <g id="text_53">
    <!-- 42 -->
    <g style="fill: #ffffff" transform="translate(316.7375 304.079375) scale(0.1 -0.1)">
     <use xlink:href="#DejaVuSans-34"/>
     <use xlink:href="#DejaVuSans-32" transform="translate(63.623047 0)"/>
    </g>
   </g>
   <g id="text_54">
    <!-- 53 -->
    <g style="fill: #ffffff" transform="translate(372.5375 304.079375) scale(0.1 -0.1)">
     <use xlink:href="#DejaVuSans-35"/>
     <use xlink:href="#DejaVuSans-33" transform="translate(63.623047 0)"/>
    </g>
   </g>
   <g id="text_55">
    <!-- 65 -->
    <g style="fill: #ffffff" transform="translate(428.3375 304.079375) scale(0.1 -0.1)">
     <use xlink:href="#DejaVuSans-36"/>
     <use xlink:href="#DejaVuSans-35" transform="translate(63.623047 0)"/>
    </g>
   </g>
   <g id="text_56">
    <!-- 97 -->
    <g style="fill: #ffffff" transform="translate(484.1375 304.079375) scale(0.1 -0.1)">
     <use xlink:href="#DejaVuSans-39"/>
     <use xlink:href="#DejaVuSans-37" transform="translate(63.623047 0)"/>
    </g>
   </g>
   <g id="text_57">
    <!-- 5 -->
    <g style="fill: #ffffff" transform="translate(96.71875 359.519375) scale(0.1 -0.1)">
     <use xlink:href="#DejaVuSans-35"/>
    </g>
   </g>
   <g id="text_58">
    <!-- 10 -->
    <g style="fill: #ffffff" transform="translate(149.3375 359.519375) scale(0.1 -0.1)">
     <use xlink:href="#DejaVuSans-31"/>
     <use xlink:href="#DejaVuSans-30" transform="translate(63.623047 0)"/>
    </g>
   </g>
   <g id="text_59">
    <!-- 20 -->
    <g style="fill: #ffffff" transform="translate(205.1375 359.519375) scale(0.1 -0.1)">
     <use xlink:href="#DejaVuSans-32"/>
     <use xlink:href="#DejaVuSans-30" transform="translate(63.623047 0)"/>
    </g>
   </g>
   <g id="text_60">
    <!-- 30 -->
    <g style="fill: #ffffff" transform="translate(260.9375 359.519375) scale(0.1 -0.1)">
     <use xlink:href="#DejaVuSans-33"/>
     <use xlink:href="#DejaVuSans-30" transform="translate(63.623047 0)"/>
    </g>
   </g>
   <g id="text_61">
    <!-- 50 -->
    <g style="fill: #ffffff" transform="translate(316.7375 359.519375) scale(0.1 -0.1)">
     <use xlink:href="#DejaVuSans-35"/>
     <use xlink:href="#DejaVuSans-30" transform="translate(63.623047 0)"/>
    </g>
   </g>
   <g id="text_62">
    <!-- 68 -->
    <g style="fill: #ffffff" transform="translate(372.5375 359.519375) scale(0.1 -0.1)">
     <use xlink:href="#DejaVuSans-36"/>
     <use xlink:href="#DejaVuSans-38" transform="translate(63.623047 0)"/>
    </g>
   </g>
   <g id="text_63">
    <!-- 90 -->
    <g style="fill: #ffffff" transform="translate(428.3375 359.519375) scale(0.1 -0.1)">
     <use xlink:href="#DejaVuSans-39"/>
     <use xlink:href="#DejaVuSans-30" transform="translate(63.623047 0)"/>
    </g>
   </g>
   <g id="text_64">
    <!-- 137 -->
    <g style="fill: #ffffff" transform="translate(480.95625 359.519375) scale(0.1 -0.1)">
     <use xlink:href="#DejaVuSans-31"/>
     <use xlink:href="#DejaVuSans-33" transform="translate(63.623047 0)"/>
     <use xlink:href="#DejaVuSans-37" transform="translate(127.246094 0)"/>
    </g>
   </g>
  </g>
 </g>
 <defs>
  <clipPath id="p232a536c62">
   <rect x="72" y="51.84" width="446.4" height="332.64"/>
  </clipPath>
 </defs>
</svg>
